<svg width="48" height="48" xmlns="http://www.w3.org/2000/svg" version="1.1">
 <!-- Uploaded to: SVG Repo, www.svgrepo.com, Generator: SVG Repo Mixer Tools -->

 <title>ic_fluent_weather_duststorm_48_filled</title>
 <desc>Created with Sketch.</desc>
 <g>
  <title>Layer 1</title>
  <path stroke-width="0" id="🎨-Color" d="m16.5,35c2.48528,0 4.5,2.01472 4.5,4.5c0,2.48528 -2.01472,4.5 -4.5,4.5c-2.48528,0 -4.5,-2.01472 -4.5,-4.5c0,-2.48528 2.01472,-4.5 4.5,-4.5zm0,3.5c-0.55228,0 -1,0.44772 -1,1c0,0.55228 0.44772,1 1,1c0.55228,0 1,-0.44772 1,-1c0,-0.55228 -0.44772,-1 -1,-1zm-10.7518,-8c-0.9665,0 -1.75,-0.7835 -1.75,-1.75c0,-0.91817 0.70711,-1.67119 1.60647,-1.7442l0.14353,-0.0058l31.2518,0c0.06006,0 0.11942,0.00303 0.17792,0.00893l0.17488,-0.00893c1.72992,0 3.1472,-1.44703 3.1472,-3.25c0,-1.80297 -1.41728,-3.25 -3.1472,-3.25c-1.33753,0 -2.44642,0.77732 -2.81679,1.98055l-0.04783,0.17475c-0.22595,0.93971 -1.17091,1.51833 -2.11062,1.29238c-0.93972,-0.22596 -1.51834,-1.17092 -1.29239,-2.11063c0.70161,-2.91792 3.28926,-4.83705 6.26763,-4.83705c3.67938,0 6.6472,3.03012 6.6472,6.75c0,3.71988 -2.96782,6.75 -6.6472,6.75c-0.05997,0 -0.11925,-0.00302 -0.17767,-0.00891l-0.17513,0.00891l-1.56357,-0.00005c0.36341,0.7628 0.56648,1.61253 0.56648,2.50967c0,3.34615 -2.60495,6.01014 -6.00291,6.01014c-3.15262,0 -4.91762,-1.34489 -5.84786,-3.55859c-0.37442,-0.89102 0.04436,-1.91687 0.93539,-2.2913c0.89102,-0.37442 1.91687,0.04436 2.2913,0.93539c0.41509,0.9878 0.97509,1.4145 2.62117,1.4145c1.44719,0 2.50291,-1.07965 2.50291,-2.51014c0,-1.31032 -1.10909,-2.42108 -2.53959,-2.50458l-0.17315,-0.00504l-24.04197,0zm16.75108,-25.5c4.69403,0 8.49928,3.80526 8.49928,8.49928c0,4.60868 -3.66814,8.36062 -8.24414,8.49553l-0.25499,0.00375l-16.74928,0.00144c-0.9665,0 -1.75015,-0.78335 -1.75015,-1.74985c0,-0.91817 0.70697,-1.67125 1.60632,-1.74434l0.14353,-0.00581l16.74928,-0.00144c2.76118,0 4.99943,-2.23825 4.99943,-4.99928c0,-2.76102 -2.23825,-4.99928 -4.99928,-4.99928c-2.74699,0 -4.88119,1.96611 -4.99454,4.55919l-0.00474,0.21751c0,0.9665 -0.7835,1.75 -1.75,1.75c-0.9665,0 -1.75,-0.7835 -1.75,-1.75c0,-4.67029 3.77856,-8.2767 8.49928,-8.2767zm16.00072,-1c2.48528,0 4.5,2.01472 4.5,4.5c0,2.48528 -2.01472,4.5 -4.5,4.5c-2.48528,0 -4.5,-2.01472 -4.5,-4.5c0,-2.48528 2.01472,-4.5 4.5,-4.5zm-31.00621,-1.00404c2.48408,0 4.49783,2.01375 4.49783,4.49783c0,2.48408 -2.01375,4.49783 -4.49783,4.49783c-2.48408,0 -4.49783,-2.01375 -4.49783,-4.49783c0,-2.48408 2.01375,-4.49783 4.49783,-4.49783zm31.00621,4.50404c-0.55228,0 -1,0.44772 -1,1c0,0.55228 0.44772,1 1,1c0.55228,0 1,-0.44772 1,-1c0,-0.55228 -0.44772,-1 -1,-1zm-31.00621,-1.00404c-0.55108,0 -0.99783,0.44675 -0.99783,0.99783c0,0.55108 0.44675,0.99783 0.99783,0.99783c0.55108,0 0.99783,-0.44675 0.99783,-0.99783c0,-0.55108 -0.44675,-0.99783 -0.99783,-0.99783z" stroke="#bfbfbf" fill="#bfbfbf"/>
 </g>
</svg>