<svg xmlns="http://www.w3.org/2000/svg" xml:space="preserve" width="72" height="72" id="heavy">
  <path fill="#868686" d="M40.714 20.096c-3.586 0-6.83 1.837-8.681 4.801a7.51 7.51 0 0 0-7.735 3.851 5.936 5.936 0 0 0-5.62 5.921c0 2.936 2.18 5.25 5.554 5.893 2.206.421 5.395.577 11.768.577 6.022 0 9.86-.302 12.019-.555 3.172-.372 5.303-2.591 5.303-5.522a5.493 5.493 0 0 0-2.359-4.52l.002-.194c-.001-5.654-4.599-10.252-10.251-10.252z"></path>
  <path fill="#BFBFBF" d="M48.843 31.703a8.32 8.32 0 0 0 .121-1.357 8.248 8.248 0 1 0-15.897-3.088 5.498 5.498 0 0 0-7.479 3.619 3.872 3.872 0 0 0-.981-.138 3.929 3.929 0 0 0-3.929 3.929c0 2.17 1.744 3.512 3.929 3.929s5.518.541 11.393.541 9.655-.292 11.786-.542c2.131-.25 3.536-1.583 3.536-3.536a3.525 3.525 0 0 0-2.479-3.357z"></path>
  <path fill="#E0E0E0" d="M24.607 32.773c.341 0 .666.057.981.138a5.497 5.497 0 0 1 7.479-3.619 8.247 8.247 0 0 1 7.647-5.162c4.203 0 7.664 3.144 8.177 7.207a7.72 7.72 0 0 0 .073-.992 8.248 8.248 0 1 0-15.897-3.088 5.498 5.498 0 0 0-7.479 3.619 3.872 3.872 0 0 0-.981-.138 3.929 3.929 0 0 0-3.929 3.929c0 .36.064.689.154 1.004.456-1.667 1.964-2.898 3.775-2.898z"></path>
  <path fill="#45ABFF" d="M24.626 42.404c-.955 0-1.733.769-1.75 1.719a1.753 1.753 0 0 0-.847-.22c-.625 0-1.206.336-1.517.876-.477.826-.2 1.884.615 2.374a1.751 1.751 0 0 0 .902 3.25c.296 0 .589-.076.848-.22.016.951.795 1.72 1.75 1.72s1.733-.769 1.75-1.719a1.754 1.754 0 0 0 2.364-.657c.477-.827.2-1.885-.615-2.374a1.751 1.751 0 0 0-.903-3.25c-.296 0-.588.076-.847.22a1.753 1.753 0 0 0-1.75-1.719z"></path>
  <path fill="#FFF" d="M26.849 49.304a.75.75 0 1 0 .751-1.298l-1.473-.851 1.473-.851a.75.75 0 1 0-.75-1.298l-1.473.851v-1.701a.75.75 0 0 0-1.5 0v1.701l-1.473-.851a.75.75 0 0 0-.75 1.298l1.473.851-1.473.851a.75.75 0 1 0 .751 1.298l1.473-.851v1.701a.75.75 0 0 0 1.5 0v-1.701l1.471.851z"></path>
  <path fill="#45ABFF" d="M36 42.404c-.955 0-1.733.769-1.75 1.72a1.749 1.749 0 0 0-1.75 3.03 1.751 1.751 0 0 0 .902 3.25c.296 0 .589-.076.848-.22.016.951.795 1.72 1.75 1.72s1.733-.769 1.75-1.719a1.754 1.754 0 0 0 2.364-.657c.477-.827.2-1.885-.615-2.374a1.751 1.751 0 0 0-.902-3.25c-.296 0-.589.076-.848.22A1.751 1.751 0 0 0 36 42.404z"></path>
  <path fill="#FFF" d="m38.973 48.005-1.473-.851 1.473-.851a.75.75 0 1 0-.75-1.298l-1.473.851v-1.701a.75.75 0 0 0-1.5 0v1.701l-1.473-.851a.75.75 0 0 0-.75 1.298l1.473.851-1.473.851a.75.75 0 1 0 .751 1.298l1.473-.851v1.701a.75.75 0 0 0 1.5 0v-1.701l1.473.851a.75.75 0 1 0 .749-1.298z"></path>
  <path fill="#45ABFF" d="M47.374 42.404c-.955 0-1.733.769-1.75 1.72a1.749 1.749 0 0 0-1.75 3.03 1.751 1.751 0 0 0 .902 3.25c.296 0 .589-.076.848-.22.016.951.795 1.72 1.75 1.72s1.733-.769 1.75-1.719a1.754 1.754 0 0 0 2.364-.657c.477-.827.2-1.885-.615-2.374a1.751 1.751 0 0 0-.902-3.25c-.296 0-.589.076-.848.22a1.75 1.75 0 0 0-1.749-1.72z"></path>
  <path fill="#FFF" d="m50.348 48.005-1.473-.851 1.473-.851a.75.75 0 1 0-.75-1.298l-1.473.851v-1.701a.75.75 0 0 0-1.5 0v1.701l-1.473-.851a.75.75 0 0 0-.75 1.298l1.473.851-1.473.851a.75.75 0 1 0 .751 1.298l1.473-.851v1.701a.75.75 0 0 0 1.5 0v-1.701l1.473.851a.75.75 0 1 0 .749-1.298z"></path>
</svg>
