<svg xmlns="http://www.w3.org/2000/svg" xml:space="preserve" id="light" width="72" height="72" x="0" y="0" version="1.1" viewBox="0 0 72 72">
  <path fill="#FFAA45" d="M25.268 18.134a.999.999 0 0 1-.924-.618l-1.217-2.937a1.001 1.001 0 0 1 1.848-.766l1.217 2.937a1.001 1.001 0 0 1-.924 1.384zM16.551 33.306a1 1 0 0 1-.383-1.924l2.937-1.217a1.001 1.001 0 0 1 .766 1.848l-2.937 1.217a1.002 1.002 0 0 1-.383.076zM39.224 23.914a1 1 0 0 1-.383-1.925l2.937-1.216a1.001 1.001 0 0 1 .766 1.848l-2.937 1.216a.978.978 0 0 1-.383.077zM33.443 18.134a1 1 0 0 1-.924-1.384l1.217-2.937a1.001 1.001 0 0 1 1.848.766l-1.217 2.937a1 1 0 0 1-.924.618zM19.487 23.914a.996.996 0 0 1-.383-.077l-2.937-1.216a1 1 0 0 1 .766-1.848l2.937 1.216a1 1 0 0 1-.383 1.925z"></path>
  <circle cx="29.356" cy="27.002" r="8.291" fill="#FFAA45"></circle>
  <path fill="#FFDA69" d="M29.353 20.709a6.276 6.276 0 0 1 5.815 3.885 6.25 6.25 0 0 1 0 4.815 6.25 6.25 0 0 1-3.404 3.404 6.256 6.256 0 0 1-2.404.481 6.276 6.276 0 0 1-5.815-3.885 6.25 6.25 0 0 1 0-4.815 6.25 6.25 0 0 1 3.404-3.404 6.252 6.252 0 0 1 2.404-.481"></path>
  <path fill="#45ABFF" d="M42.66 49.147c-.955 0-1.733.769-1.75 1.72a1.749 1.749 0 0 0-1.75 3.03 1.752 1.752 0 0 0-.614 2.375 1.753 1.753 0 0 0 2.364.656 1.751 1.751 0 0 0 3.5 0 1.754 1.754 0 0 0 2.364-.657c.477-.826.2-1.885-.615-2.374a1.752 1.752 0 0 0 .614-2.375 1.753 1.753 0 0 0-2.364-.655 1.75 1.75 0 0 0-1.749-1.72z"></path>
  <path fill="#868686" d="M43.842 25.502c-3.586 0-6.83 1.837-8.681 4.801a7.509 7.509 0 0 0-7.735 3.851 5.936 5.936 0 0 0-5.62 5.921c0 2.936 2.18 5.25 5.554 5.893 2.206.421 5.395.577 11.768.577 6.022 0 9.859-.302 12.019-.555 3.172-.372 5.303-2.591 5.303-5.522a5.491 5.491 0 0 0-2.359-4.52l.002-.194c-.001-5.654-4.599-10.252-10.251-10.252z"></path>
  <path fill="#45ABFF" d="M33.107 58.803a1 1 0 0 1-.936-1.351l.75-2a1 1 0 0 1 1.873.703l-.75 2a1.003 1.003 0 0 1-.937.648zM35.357 52.803a1 1 0 0 1-.936-1.351l.75-2a1 1 0 0 1 1.873.703l-.75 2a1.003 1.003 0 0 1-.937.648z"></path>
  <path fill="#E6E6E6" d="M51.971 37.11a8.32 8.32 0 0 0 .121-1.357 8.248 8.248 0 1 0-15.897-3.088 5.498 5.498 0 0 0-7.479 3.619 3.872 3.872 0 0 0-.981-.138 3.929 3.929 0 0 0-3.929 3.929c0 2.17 1.744 3.512 3.929 3.929 2.185.417 5.518.542 11.393.542s9.655-.292 11.786-.542c2.131-.25 3.536-1.583 3.536-3.536a3.525 3.525 0 0 0-2.479-3.358z"></path>
  <path fill="#FFF" d="M27.735 38.179c.341 0 .666.057.981.138a5.497 5.497 0 0 1 7.479-3.619 8.247 8.247 0 0 1 7.647-5.162c4.203 0 7.664 3.144 8.177 7.207a7.72 7.72 0 0 0 .073-.992 8.248 8.248 0 1 0-15.897-3.088 5.498 5.498 0 0 0-7.479 3.619 3.872 3.872 0 0 0-.981-.138 3.929 3.929 0 0 0-3.929 3.929c0 .36.064.689.154 1.004.456-1.666 1.964-2.898 3.775-2.898zM45.633 54.747l-1.473-.851 1.473-.851a.75.75 0 1 0-.75-1.298l-1.473.851v-1.701a.75.75 0 0 0-1.5 0v1.701l-1.473-.851a.75.75 0 0 0-.75 1.298l1.473.851-1.473.851a.75.75 0 1 0 .751 1.298l1.473-.851v1.701a.75.75 0 0 0 1.5 0v-1.701l1.473.851a.75.75 0 1 0 .749-1.298z"></path>
</svg>
