<svg xmlns="http://www.w3.org/2000/svg" xml:space="preserve" width="72" height="72" id="light">
  <path fill="#45ABFF" d="M29.949 57.662a1.001 1.001 0 0 1-.937-1.351l.751-2a1.001 1.001 0 0 1 1.873.703l-.751 2a1 1 0 0 1-.936.648zM32.2 51.662a1 1 0 0 1-.937-1.35l.749-2a1 1 0 0 1 1.873.701l-.749 2a1 1 0 0 1-.936.649zM43.699 57.662a1.001 1.001 0 0 1-.937-1.351l.751-2a1.001 1.001 0 0 1 1.873.703l-.751 2a1 1 0 0 1-.936.648zM45.949 51.662a1.001 1.001 0 0 1-.937-1.351l.75-2a1.001 1.001 0 0 1 1.873.703l-.75 2a1 1 0 0 1-.936.648zM36.324 59.663a1.001 1.001 0 0 1-.937-1.351l.75-2a1.001 1.001 0 0 1 1.873.703l-.75 2a1 1 0 0 1-.936.648zM38.574 53.662a1.001 1.001 0 0 1-.937-1.351l.75-2a1.001 1.001 0 0 1 1.873.703l-.75 2a1 1 0 0 1-.936.648z"></path>
  <path fill="#868686" d="M43.842 24.642c-3.586 0-6.83 1.837-8.681 4.801a7.51 7.51 0 0 0-7.735 3.851 5.936 5.936 0 0 0-5.62 5.921c0 2.936 2.18 5.25 5.554 5.893 2.206.421 5.395.577 11.768.577 6.022 0 9.859-.302 12.019-.555 3.172-.372 5.303-2.591 5.303-5.522a5.493 5.493 0 0 0-2.359-4.52l.002-.194c-.001-5.654-4.599-10.252-10.251-10.252z"></path>
  <path fill="#E6E6E6" d="M51.971 36.25a8.32 8.32 0 0 0 .121-1.357 8.248 8.248 0 1 0-15.897-3.088 5.498 5.498 0 0 0-7.479 3.619 3.872 3.872 0 0 0-.981-.138 3.929 3.929 0 0 0-3.929 3.929c0 2.17 1.744 3.512 3.929 3.929s5.518.542 11.393.542 9.655-.292 11.786-.542c2.131-.25 3.536-1.583 3.536-3.536a3.526 3.526 0 0 0-2.479-3.358z"></path>
  <path fill="#FFF" d="M27.735 37.319c.341 0 .666.057.981.138a5.497 5.497 0 0 1 7.479-3.619 8.247 8.247 0 0 1 7.647-5.162c4.203 0 7.664 3.144 8.177 7.207a7.72 7.72 0 0 0 .073-.992 8.248 8.248 0 1 0-15.897-3.088 5.498 5.498 0 0 0-7.479 3.619 3.872 3.872 0 0 0-.981-.138 3.929 3.929 0 0 0-3.929 3.929c0 .36.064.689.154 1.004.456-1.666 1.964-2.898 3.775-2.898z"></path>
  <path fill="#FFDA69" d="M31.775 23.892c.209-5.167-3.602-9.558-8.647-10.172 1.854 3.189 2.183 7.198.517 10.801-1.59 3.438-4.639 5.727-8.069 6.498a9.804 9.804 0 0 0 5.954 2.324c5.439.219 10.025-4.012 10.245-9.451z"></path>
</svg>
