<svg width="48" height="48" xmlns="http://www.w3.org/2000/svg" version="1.1">
 <!-- Uploaded to: SVG Repo, www.svgrepo.com, Generator: SVG Repo Mixer Tools -->

 <title>ic_fluent_weather_duststorm_48_filled</title>
 <desc>Created with Sketch.</desc>
 <g>
  <title>Layer 1</title>
  <g id="svg_27">
   <path id="svg_2" d="m19.84344,24l7.07071,-13.73737l7.07071,13.73737l-7.07071,13.73737l-7.07071,-13.73737z" stroke-width="0" stroke="#bfbfbf" fill="#45abff"/>
   <path stroke="#bfbfbf" id="svg_3" d="m22.21717,24l4.69697,-9.12554l4.69697,9.12554l-4.69697,9.12554l-4.69697,-9.12554z" stroke-width="0" fill="#ffffff"/>
   <g id="svg_26">
    <g id="svg_24">
     <path stroke="#bfbfbf" id="svg_14" d="m14.01515,13.29293l3.63636,-7.06494l3.63636,7.06494l-3.63636,7.06494l-3.63636,-7.06494z" stroke-width="0" fill="#45abff"/>
     <path stroke="#bfbfbf" id="svg_15" d="m15.4988,13.39394l2.15271,-4.18242l2.15272,4.18242l-2.15272,4.18242l-2.15271,-4.18242z" stroke-width="0" fill="#ffffff"/>
    </g>
    <g id="svg_25">
     <path stroke="#bfbfbf" id="svg_18" d="m14.01515,34.70707l3.63636,-7.06494l3.63637,7.06494l-3.63637,7.06494l-3.63636,-7.06494z" stroke-width="0" fill="#45abff"/>
     <path stroke="#bfbfbf" id="svg_19" d="m15.4988,34.60606l2.15271,-4.18242l2.15272,4.18242l-2.15272,4.18241l-2.15271,-4.18241z" stroke-width="0" fill="#ffffff"/>
    </g>
   </g>
  </g>
 </g>
</svg>