<svg width="72" height="72" xmlns="http://www.w3.org/2000/svg" xml:space="preserve">
 <g>
  <title>Layer 1</title>
  <path fill="#868686" d="m40.714,19.349c-3.586,0 -6.83,1.837 -8.681,4.801a7.51,7.51 0 0 0 -7.735,3.85a5.936,5.936 0 0 0 -5.62,5.921c0,2.936 2.18,5.25 5.554,5.893c2.206,0.421 5.395,0.577 11.768,0.577c6.022,0 9.86,-0.302 12.019,-0.555c3.172,-0.372 5.303,-2.591 5.303,-5.522a5.493,5.493 0 0 0 -2.359,-4.52l0.002,-0.194c-0.001,-5.653 -4.599,-10.251 -10.251,-10.251z" id="svg_2"/>
  <path fill="#BFBFBF" d="m48.843,30.957a8.32,8.32 0 0 0 0.121,-1.357a8.248,8.248 0 1 0 -15.897,-3.088a5.498,5.498 0 0 0 -7.479,3.619a3.872,3.872 0 0 0 -0.981,-0.138a3.929,3.929 0 0 0 -3.929,3.929c0,2.17 1.744,3.512 3.929,3.929c2.185,0.417 5.518,0.542 11.393,0.542s9.655,-0.292 11.786,-0.542c2.131,-0.25 3.536,-1.583 3.536,-3.536a3.525,3.525 0 0 0 -2.479,-3.358z" id="svg_4"/>
  <path fill="#E0E0E0" d="m24.607,32.026c0.341,0 0.666,0.057 0.981,0.138a5.497,5.497 0 0 1 7.479,-3.619a8.247,8.247 0 0 1 7.647,-5.162c4.203,0 7.664,3.144 8.177,7.207a7.72,7.72 0 0 0 0.073,-0.992a8.248,8.248 0 1 0 -15.897,-3.088a5.498,5.498 0 0 0 -7.479,3.619a3.872,3.872 0 0 0 -0.981,-0.138a3.929,3.929 0 0 0 -3.929,3.929c0,0.36 0.064,0.689 0.154,1.004c0.456,-1.666 1.964,-2.898 3.775,-2.898z" id="svg_5"/>
  <line fill="none" x1="42.69492" y1="26.67708" x2="33.36977" y2="38.21082" id="svg_11"/>
  <line fill="none" stroke="null" x1="41.54901" y1="25.80927" x2="32.82353" y2="36.78966" id="svg_19" stroke-width="5"/>
  <g id="svg_16">
   <path fill="#45abff" d="m28.06803,41.881c-0.955,0 -1.733,0.769 -1.75,1.72a1.749,1.749 0 0 0 -1.75,3.03a1.751,1.751 0 0 0 0.902,3.25c0.296,0 0.589,-0.076 0.848,-0.22c0.016,0.951 0.795,1.72 1.75,1.72s1.733,-0.769 1.75,-1.719a1.754,1.754 0 0 0 2.364,-0.657c0.477,-0.827 0.2,-1.885 -0.615,-2.374a1.751,1.751 0 0 0 -0.902,-3.25c-0.296,0 -0.589,0.076 -0.848,0.22a1.75,1.75 0 0 0 -1.749,-1.72z" id="svg_7"/>
   <path stroke="null" fill="#FFF" d="m30.91833,47.481l-1.473,-0.851l1.473,-0.851a0.75,0.75 0 1 0 -0.75,-1.298l-1.473,0.851l0,-1.701a0.75,0.75 0 0 0 -1.5,0l0,1.701l-1.473,-0.851a0.75,0.75 0 0 0 -0.75,1.298l1.473,0.851l-1.473,0.851a0.75,0.75 0 1 0 0.751,1.298l1.473,-0.851l0,1.701a0.75,0.75 0 0 0 1.5,0l0,-1.701l1.473,0.851a0.75,0.75 0 1 0 0.749,-1.298z" id="svg_8"/>
  </g>
  <g stroke="null" id="svg_21">
   <path stroke="null" fill="#45abff" d="m25.35085,52.53939c-0.54664,0 -0.99196,0.44017 -1.00169,0.98452a1.00112,1.00112 0 0 0 -1.00169,1.73436a1.00227,1.00227 0 0 0 0.5163,1.86029c0.16943,0 0.33714,-0.0435 0.48539,-0.12593c0.00916,0.54435 0.45505,0.98452 1.00169,0.98452s0.99196,-0.44017 1.00169,-0.98395a1.00398,1.00398 0 0 0 1.35314,-0.37606c0.27303,-0.47337 0.11448,-1.07897 -0.35202,-1.35887a1.00227,1.00227 0 0 0 -0.5163,-1.86029c-0.16943,0 -0.33714,0.0435 -0.48539,0.12593a1.00169,1.00169 0 0 0 -1.00112,-0.98452z" id="svg_18"/>
   <path stroke="null" fill="#FFF" d="m26.98235,55.7448l-0.84314,-0.48711l0.84314,-0.48711a0.4293,0.4293 0 1 0 -0.4293,-0.74297l-0.84314,0.48711l0,-0.97365a0.4293,0.4293 0 0 0 -0.85859,0l0,0.97365l-0.84314,-0.48711a0.4293,0.4293 0 0 0 -0.4293,0.74297l0.84314,0.48711l-0.84314,0.48711a0.4293,0.4293 0 1 0 0.42987,0.74297l0.84314,-0.48711l0,0.97365a0.4293,0.4293 0 0 0 0.85859,0l0,-0.97365l0.84314,0.48711a0.4293,0.4293 0 1 0 0.42872,-0.74297z" id="svg_20"/>
  </g>
  <path transform="rotate(-55.5177 34.4893 50.0878)" id="svg_22" d="m26.25745,50.08926c0,-0.27169 0.22831,-0.5 0.5,-0.5l15.46361,0c0.27169,0 0.5,0.22831 0.5,0.5l0,-0.0029c0,0.27169 -0.22831,0.5 -0.5,0.5l-15.46361,0c-0.27169,0 -0.5,-0.22831 -0.5,-0.5l0,0.0029z" opacity="undefined" stroke="null" fill="#45abff"/>
  <g id="svg_23">
   <path fill="#45abff" d="m45.45309,41.88101c-0.955,0 -1.733,0.769 -1.75,1.72a1.749,1.749 0 0 0 -1.75,3.03a1.751,1.751 0 0 0 0.902,3.25c0.296,0 0.589,-0.076 0.848,-0.22c0.016,0.951 0.795,1.72 1.75,1.72s1.733,-0.769 1.75,-1.719a1.754,1.754 0 0 0 2.364,-0.657c0.477,-0.827 0.2,-1.885 -0.615,-2.374a1.751,1.751 0 0 0 -0.902,-3.25c-0.296,0 -0.589,0.076 -0.848,0.22a1.75,1.75 0 0 0 -1.749,-1.72z" id="svg_1"/>
   <path stroke="null" fill="#FFF" d="m48.30339,47.48101l-1.473,-0.851l1.473,-0.851a0.75,0.75 0 1 0 -0.75,-1.298l-1.473,0.851l0,-1.701a0.75,0.75 0 0 0 -1.5,0l0,1.701l-1.473,-0.851a0.75,0.75 0 0 0 -0.75,1.298l1.473,0.851l-1.473,0.851a0.75,0.75 0 1 0 0.751,1.298l1.473,-0.851l0,1.701a0.75,0.75 0 0 0 1.5,0l0,-1.701l1.473,0.851a0.75,0.75 0 1 0 0.749,-1.298z" id="svg_6"/>
  </g>
  <rect transform="rotate(-55.5177 36.7528 51.5146)" stroke="null" rx="0.5" id="svg_24" height="0.9971" width="12" y="51.01608" x="30.75281" fill="#45abff"/>
 </g>

</svg>