<?xml version="1.0" encoding="utf-8"?>
<svg xmlns="http://www.w3.org/2000/svg" width="72" height="72" id="fog">
  <path fill="#BFBFBF" d="M40.714 25.479c-3.586 0-6.83 1.837-8.681 4.801a7.51 7.51 0 0 0-7.735 3.85 5.936 5.936 0 0 0-5.62 5.921c0 2.936 2.18 5.25 5.554 5.893 2.205.421 5.395.577 11.768.577 6.022 0 9.859-.302 12.019-.555 3.172-.372 5.303-2.591 5.303-5.522a5.493 5.493 0 0 0-2.359-4.52l.002-.194c-.001-5.653-4.599-10.251-10.251-10.251z"/>
  <g fill="#FFF">
    <path d="M48.876 36.838a7.95 7.95 0 0 0 .088-1.109 8.2 8.2 0 0 0-.05-.891h-22.7a5.51 5.51 0 0 0-.626 1.422 3.872 3.872 0 0 0-.981-.138c-.839 0-1.613.268-2.252.716h26.521zM51.321 40.443c0-.58-.143-1.125-.392-1.605h-30.04c-.125.384-.21.786-.21 1.212 0 .276.03.539.083.788h30.523c.014-.131.036-.257.036-.395zM22.036 42.838c.688.562 1.578.952 2.571 1.141 2.184.417 5.518.542 11.393.542s9.655-.292 11.786-.542c1.072-.126 1.958-.526 2.577-1.141H22.036zM36.23 28.838h9.016a8.209 8.209 0 0 0-4.531-1.359 8.178 8.178 0 0 0-4.944 1.671c.156-.1.294-.219.459-.312zM48.433 32.838a8.216 8.216 0 0 0-1.086-2h-13.25a8.176 8.176 0 0 0-1.03 1.803 5.488 5.488 0 0 0-2.174-.448c-.932 0-1.806.236-2.574.645h20.114z"/>
  </g>
  <g transform="matrix(1, 0, 0, 1, -2.543341, 0)">
    <g transform="matrix(1, 0, 0, 1, -30.039296, 5.916825)">
      <path fill="#45ABFF" d="M 62.706 42.238 C 61.751 42.238 60.973 43.007 60.956 43.957 C 60.697 43.814 60.406 43.738 60.109 43.737 C 59.484 43.737 58.903 44.073 58.592 44.613 C 58.115 45.439 58.392 46.497 59.207 46.987 C 58.053 47.684 58.086 49.369 59.266 50.02 C 59.525 50.162 59.814 50.237 60.109 50.237 C 60.405 50.237 60.698 50.161 60.957 50.017 C 60.973 50.968 61.752 51.737 62.707 51.737 C 63.662 51.737 64.44 50.968 64.457 50.018 C 65.293 50.479 66.343 50.187 66.821 49.361 C 67.298 48.534 67.021 47.476 66.206 46.987 C 67.36 46.291 67.327 44.606 66.147 43.955 C 65.888 43.813 65.598 43.738 65.303 43.737 C 65.007 43.737 64.715 43.813 64.456 43.957 C 64.438 43.004 63.66 42.24 62.706 42.238 Z" style="stroke-width: 1;"/>
      <path fill="#FFF" d="M 64.929 49.138 C 65.422 49.439 66.056 49.093 66.069 48.516 C 66.076 48.236 65.926 47.975 65.68 47.84 L 64.207 46.989 L 65.68 46.138 C 66.19 45.867 66.214 45.146 65.725 44.84 C 65.482 44.688 65.173 44.688 64.93 44.84 L 63.457 45.691 L 63.457 43.99 C 63.457 43.413 62.832 43.052 62.332 43.341 C 62.1 43.475 61.957 43.722 61.957 43.99 L 61.957 45.691 L 60.484 44.84 C 59.975 44.569 59.362 44.951 59.382 45.528 C 59.391 45.777 59.523 46.006 59.734 46.138 L 61.207 46.989 L 59.734 47.84 C 59.228 48.118 59.212 48.839 59.705 49.139 C 59.945 49.285 60.246 49.284 60.485 49.138 L 61.958 48.287 L 61.958 49.988 C 61.958 50.566 62.583 50.926 63.083 50.638 C 63.315 50.504 63.458 50.256 63.458 49.988 L 63.458 48.287 L 64.929 49.138 Z" style="stroke-width: 1;"/>
    </g>
    <g transform="matrix(1, 0, 0, 1, -29.660014, 5.916825)">
      <path fill="#45ABFF" d="M 74.08 42.238 C 73.125 42.238 72.347 43.007 72.33 43.958 C 71.164 43.285 69.706 44.126 69.706 45.473 C 69.705 46.098 70.039 46.676 70.58 46.988 C 69.426 47.685 69.459 49.37 70.639 50.021 C 70.898 50.163 71.187 50.238 71.482 50.238 C 71.778 50.238 72.071 50.162 72.33 50.018 C 72.346 50.969 73.125 51.738 74.08 51.738 C 75.035 51.738 75.813 50.969 75.83 50.019 C 76.666 50.48 77.716 50.188 78.194 49.362 C 78.671 48.535 78.394 47.477 77.579 46.988 C 78.733 46.292 78.7 44.607 77.52 43.956 C 77.262 43.814 76.972 43.739 76.677 43.738 C 76.381 43.738 76.088 43.814 75.829 43.958 C 75.812 43.004 75.034 42.239 74.08 42.238 Z" style="stroke-width: 1;"/>
      <path fill="#FFF" d="M 77.053 47.839 L 75.58 46.988 L 77.053 46.137 C 77.563 45.866 77.587 45.145 77.098 44.839 C 76.855 44.687 76.546 44.687 76.303 44.839 L 74.83 45.69 L 74.83 43.989 C 74.83 43.412 74.205 43.051 73.705 43.34 C 73.473 43.474 73.33 43.721 73.33 43.989 L 73.33 45.69 L 71.857 44.839 C 71.348 44.568 70.735 44.95 70.755 45.527 C 70.764 45.776 70.896 46.005 71.107 46.137 L 72.58 46.988 L 71.107 47.839 C 70.601 48.117 70.585 48.838 71.078 49.138 C 71.318 49.284 71.619 49.283 71.858 49.137 L 73.331 48.286 L 73.331 49.987 C 73.331 50.565 73.956 50.925 74.456 50.637 C 74.688 50.503 74.831 50.255 74.831 49.987 L 74.831 48.286 L 76.304 49.137 C 76.791 49.447 77.431 49.114 77.456 48.537 C 77.468 48.246 77.311 47.974 77.053 47.839 Z" style="stroke-width: 1;"/>
    </g>
  </g>
</svg>