<?xml version="1.0" encoding="utf-8"?>
<svg xmlns="http://www.w3.org/2000/svg" width="128px" height="128px" id="light" viewBox="0 0 128 128">
  <path fill="#868686" d="M 40.714 19.428 C 37.128 19.428 33.884 21.265 32.033 24.229 C 28.9 23.752 25.806 25.293 24.298 28.08 C 21.149 28.248 18.681 30.848 18.678 34.001 C 18.678 36.937 20.858 39.251 24.232 39.894 C 26.438 40.315 29.627 40.471 36 40.471 C 42.022 40.471 45.859 40.169 48.019 39.916 C 51.191 39.544 53.322 37.325 53.322 34.394 C 53.325 32.591 52.444 30.902 50.963 29.874 L 50.965 29.68 C 50.964 24.026 46.366 19.428 40.714 19.428 Z"/>
  <path fill="#E6E6E6" d="M48.843 31.035a8.32 8.32 0 0 0 .121-1.357 8.248 8.248 0 1 0-15.897-3.088 5.498 5.498 0 0 0-7.479 3.619 3.872 3.872 0 0 0-.981-.138A3.929 3.929 0 0 0 20.678 34c0 2.17 1.744 3.512 3.929 3.929s5.518.54 11.393.54 9.655-.292 11.786-.542c2.131-.25 3.536-1.583 3.536-3.536a3.525 3.525 0 0 0-2.479-3.356z"/>
  <path fill="#FFF" d="M24.607 32.105c.341 0 .666.057.981.138a5.497 5.497 0 0 1 7.479-3.619 8.247 8.247 0 0 1 7.647-5.162c4.203 0 7.664 3.144 8.177 7.207a7.72 7.72 0 0 0 .073-.992 8.248 8.248 0 1 0-15.897-3.088 5.498 5.498 0 0 0-7.479 3.619 3.872 3.872 0 0 0-.981-.138 3.929 3.929 0 0 0-3.929 3.929c0 .36.064.689.154 1.004.456-1.667 1.964-2.898 3.775-2.898zM38.981 48.673l-1.473-.851 1.473-.851a.75.75 0 1 0-.75-1.298l-1.473.851v-1.701a.75.75 0 0 0-1.5 0v1.701l-1.473-.851a.75.75 0 0 0-.75 1.298l1.473.851-1.473.851a.75.75 0 1 0 .751 1.298l1.473-.851v1.701a.75.75 0 0 0 1.5 0V49.12l1.473.851a.75.75 0 1 0 .749-1.298z"/>
  <ellipse style="stroke: rgb(69, 171, 255); fill: rgb(255, 255, 255); paint-order: fill; stroke-width: 1;" cx="43.968" cy="44.927" rx="1.896" ry="1.855"/>
  <ellipse style="stroke: rgb(69, 171, 255); fill: rgb(255, 255, 255); paint-order: fill; stroke-width: 1;" cx="36" cy="44.927" rx="1.896" ry="1.855"/>
  <ellipse style="stroke: rgb(69, 171, 255); fill: rgb(255, 255, 255); paint-order: fill; stroke-width: 1;" cx="28.032" cy="44.927" rx="1.896" ry="1.855"/>
  <g transform="matrix(1, 0, 0, 1, -4.299472, 5.887152)">
    <g>
      <ellipse style="stroke: rgb(69, 171, 255); fill: rgb(255, 255, 255); paint-order: fill; stroke-width: 1;" cx="43.968" cy="44.927" rx="1.896" ry="1.855"/>
      <ellipse style="stroke: rgb(69, 171, 255); fill: rgb(255, 255, 255); paint-order: fill; stroke-width: 1;" cx="36" cy="44.927" rx="1.896" ry="1.855"/>
    </g>
    <ellipse style="stroke: rgb(69, 171, 255); fill: rgb(255, 255, 255); paint-order: fill; stroke-width: 1;" cx="28.032" cy="44.927" rx="1.896" ry="1.855"/>
  </g>
</svg>