<svg width="72" height="72" xmlns="http://www.w3.org/2000/svg" xml:space="preserve">

 <g>
  <title>Layer 1</title>
  <path id="svg_1" d="m39.532,42.994c-0.955,0 -1.733,0.769 -1.75,1.72a1.749,1.749 0 0 0 -1.75,3.03a1.752,1.752 0 0 0 -0.614,2.375a1.753,1.753 0 0 0 2.364,0.656a1.751,1.751 0 0 0 3.5,0a1.754,1.754 0 0 0 2.364,-0.657c0.477,-0.826 0.2,-1.885 -0.615,-2.374a1.752,1.752 0 0 0 0.614,-2.375a1.753,1.753 0 0 0 -2.364,-0.655a1.75,1.75 0 0 0 -1.749,-1.72z" fill="#45ABFF"/>
  <path id="svg_2" d="m40.714,19.349c-3.586,0 -6.83,1.837 -8.681,4.801a7.509,7.509 0 0 0 -7.735,3.851a5.936,5.936 0 0 0 -5.62,5.921c0,2.936 2.18,5.25 5.554,5.893c2.206,0.421 5.395,0.577 11.768,0.577c6.022,0 9.859,-0.302 12.019,-0.555c3.172,-0.372 5.303,-2.591 5.303,-5.522a5.491,5.491 0 0 0 -2.359,-4.52l0.002,-0.194c-0.001,-5.654 -4.599,-10.252 -10.251,-10.252z" fill="#868686"/>
  <path id="svg_3" d="m30.06853,52.651a1,1 0 0 1 -0.936,-1.351l0.75,-2a1,1 0 0 1 1.873,0.703l-0.75,2a1.003,1.003 0 0 1 -0.937,0.648zm2.25,-6a1,1 0 0 1 -0.936,-1.351l0.75,-2a1,1 0 0 1 1.873,0.703l-0.75,2a1.003,1.003 0 0 1 -0.937,0.648z" fill="#45ABFF"/>
  <path id="svg_4" d="m48.843,30.957a8.32,8.32 0 0 0 0.121,-1.357a8.248,8.248 0 1 0 -15.897,-3.088a5.498,5.498 0 0 0 -7.479,3.619a3.872,3.872 0 0 0 -0.981,-0.138a3.929,3.929 0 0 0 -3.929,3.929c0,2.17 1.744,3.512 3.929,3.929s5.518,0.54 11.393,0.54s9.655,-0.292 11.786,-0.542c2.131,-0.25 3.536,-1.583 3.536,-3.536a3.525,3.525 0 0 0 -2.479,-3.356z" fill="#E6E6E6"/>
  <path id="svg_5" d="m24.607,32.026c0.341,0 0.666,0.057 0.981,0.138a5.497,5.497 0 0 1 7.479,-3.619a8.247,8.247 0 0 1 7.647,-5.162c4.203,0 7.664,3.144 8.177,7.207a7.72,7.72 0 0 0 0.073,-0.992a8.248,8.248 0 1 0 -15.897,-3.088a5.498,5.498 0 0 0 -7.479,3.619a3.872,3.872 0 0 0 -0.981,-0.138a3.929,3.929 0 0 0 -3.929,3.929c0,0.36 0.064,0.689 0.154,1.004c0.456,-1.666 1.964,-2.898 3.775,-2.898zm17.898,16.569l-1.473,-0.851l1.473,-0.851a0.75,0.75 0 1 0 -0.75,-1.298l-1.473,0.851l0,-1.701a0.75,0.75 0 0 0 -1.5,0l0,1.701l-1.473,-0.851a0.75,0.75 0 0 0 -0.75,1.298l1.473,0.851l-1.473,0.851a0.75,0.75 0 1 0 0.751,1.298l1.473,-0.851l0,1.701a0.75,0.75 0 0 0 1.5,0l0,-1.701l1.473,0.851a0.75,0.75 0 1 0 0.749,-1.298z" fill="#FFF"/>
  <path id="svg_6" d="m24.60748,52.651a1,1 0 0 1 -0.936,-1.351l0.75,-2a1,1 0 0 1 1.873,0.703l-0.75,2a1.003,1.003 0 0 1 -0.937,0.648zm2.25,-6a1,1 0 0 1 -0.936,-1.351l0.75,-2a1,1 0 0 1 1.873,0.703l-0.75,2a1.003,1.003 0 0 1 -0.937,0.648z" fill="#45ABFF"/>
 </g>
</svg>