<!DOCTYPE svg PUBLIC "-//W3C//DTD SVG 1.1//EN" "http://www.w3.org/Graphics/SVG/1.1/DTD/svg11.dtd">
<!-- Uploaded to: SVG Repo, www.svgrepo.com, Transformed by: SVG Repo Mixer Tools -->
<svg fill="#000000" width="800px" height="800px" viewBox="0 0 24 24" id="icicle-2" data-name="Flat Color" xmlns="http://www.w3.org/2000/svg" class="icon flat-color">
<g id="SVGRepo_bgCarrier" stroke-width="0"/>
<g id="SVGRepo_tracerCarrier" stroke-linecap="round" stroke-linejoin="round"/>
<g id="SVGRepo_iconCarrier">
<path id="primary" d="M20.79,3.38A1,1,0,0,0,20,3H4a1,1,0,0,0-.8.4A1,1,0,0,0,3,4.3l4,13A1,1,0,0,0,8,18a1,1,0,0,0,1-.72L10,13.56l2,6.73A1,1,0,0,0,13,21a1,1,0,0,0,1-.71L16.45,12l.81.87a1,1,0,0,0,1,.29A1,1,0,0,0,19,12.4l2-8.16A1,1,0,0,0,20.79,3.38Z" style="fill: #e6e6e6;"/>
<path id="secondary" d="M21,5H3A1,1,0,0,1,3,3H21a1,1,0,0,1,0,2Z" style="fill: #45abff;"/>
</g>
</svg>