<svg width="72" height="72" xmlns="http://www.w3.org/2000/svg" version="1.1" xml:space="preserve">

 <g>
  <title>Layer 1</title>
  <path id="svg_1" d="m33.64421,37.66721l-2,6l5,0l-2,6l8,-9l-4,0l2,-3l-7,0z" fill="#FFAA45"/>
  <path id="svg_3" d="m40.714,17.177c-3.586,0 -6.83,1.837 -8.681,4.801a7.51,7.51 0 0 0 -7.735,3.85a5.936,5.936 0 0 0 -5.62,5.921c0,2.936 2.18,5.25 5.554,5.893c2.205,0.421 5.395,0.577 11.768,0.577c6.021,0 9.859,-0.302 12.019,-0.555c3.172,-0.372 5.303,-2.591 5.303,-5.522a5.493,5.493 0 0 0 -2.359,-4.52l0.002,-0.194c-0.001,-5.653 -4.599,-10.251 -10.251,-10.251z" fill="#868686"/>
  <path id="svg_4" d="m48.843,28.785a8.32,8.32 0 0 0 0.121,-1.357a8.248,8.248 0 1 0 -15.897,-3.088a5.498,5.498 0 0 0 -7.479,3.619a3.872,3.872 0 0 0 -0.981,-0.138a3.929,3.929 0 0 0 -3.929,3.929c0,2.17 1.744,3.512 3.929,3.929c2.185,0.417 5.518,0.542 11.393,0.542s9.655,-0.292 11.786,-0.542c2.131,-0.25 3.536,-1.583 3.536,-3.536a3.526,3.526 0 0 0 -2.479,-3.358z" fill="#BFBFBF"/>
  <path id="svg_5" d="m24.607,29.854c0.341,0 0.666,0.057 0.981,0.138a5.497,5.497 0 0 1 7.479,-3.619a8.247,8.247 0 0 1 7.647,-5.162c4.203,0 7.664,3.144 8.177,7.207a7.72,7.72 0 0 0 0.073,-0.992a8.248,8.248 0 1 0 -15.897,-3.088a5.498,5.498 0 0 0 -7.479,3.619a3.872,3.872 0 0 0 -0.981,-0.138a3.929,3.929 0 0 0 -3.929,3.929c0,0.36 0.064,0.689 0.154,1.004c0.456,-1.666 1.964,-2.898 3.775,-2.898z" fill="#E0E0E0"/>
 </g>
</svg>