<svg fill="#ffffff" width="800px" height="800px" viewBox="0 0 32 32" id="Layer_1" data-name="Layer 1" xmlns="http://www.w3.org/2000/svg"><g id="SVGRepo_bgCarrier" stroke-width="0"/><g id="SVGRepo_tracerCarrier" stroke-linecap="round" stroke-linejoin="round" stroke="#CCCCCC" stroke-width="0.128"/><g id="SVGRepo_iconCarrier"><defs><style>.cls-1 { fill: none; }</style></defs><path d="M10 20.184V12H8v8.184a3 3 0 1 0 2 0"/><path d="M9 30a6.993 6.993 0 0 1 -5 -11.89V7a5 5 0 0 1 10 0v11.11A6.993 6.993 0 0 1 9 30M9 4a3.003 3.003 0 0 0 -3 3v11.983l-0.332 0.299a5 5 0 1 0 6.664 0L12 18.983V7a3.003 3.003 0 0 0 -3 -3"/><path id="_Transparent_Rectangle_" data-name="&amp;lt;Transparent Rectangle&amp;gt;" class="cls-1" width="32" height="32" d="M0 0H32V32H0V0z"/></g></svg>